HIERARCHY
ROOT SpineBase
{
  OFFSET 0.000000 0.000000 0.000000
  CHANNELS 6 Xposition Yposition Zposition Zrotation Xrotation Yrotation
  JOINT SpineMid
  {
    OFFSET 0.000000 33.955607 0.000000
    CHANNELS 3 Zrotation Xrotation Yrotation
    JOINT SpineShoulder
    {
      OFFSET 0.059089 25.200734 -0.927022
      CHANNELS 3 Zrotation Xrotation Yrotation
      JOINT Neck
      {
        OFFSET 0.053769 8.333721 -0.693313
        CHANNELS 3 Zrotation Xrotation Yrotation
        JOINT Head
        {
          OFFSET -7.382473 13.524353 1.602974
          CHANNELS 3 Zrotation Xrotation Yrotation
          End Site
          {
            OFFSET 0 0 0
          }
        }
      }
      JOINT ShoulderLeft
      {
        OFFSET -10.069512 -6.709095 8.692025
        CHANNELS 3 Zrotation Xrotation Yrotation
        JOINT ElbowLeft
        {
          OFFSET -0.762624 -29.355631 -5.690948
          CHANNELS 3 Zrotation Xrotation Yrotation
          JOINT WristLeft
          {
            OFFSET -2.222347 -26.434447 -0.373516
            CHANNELS 3 Zrotation Xrotation Yrotation
            JOINT HandLeft
            {
              OFFSET -0.248097 -7.084917 1.246196
              CHANNELS 3 Zrotation Xrotation Yrotation
              JOINT HandTipLeft
              {
                OFFSET -0.010459 -2.922502 -0.897790
                CHANNELS 3 Zrotation Xrotation Yrotation
                End Site
                {
                  OFFSET 0 0 0
                }
              }
              JOINT ThumbLeft
              {
                OFFSET 2.177213 0.397350 -5.858517
                CHANNELS 3 Zrotation Xrotation Yrotation
                End Site
                {
                  OFFSET 0 0 0
                }
              }
            }
          }
        }
      }
      JOINT ShoulderRight
      {
        OFFSET 11.122910 -3.545804 -10.914212
        CHANNELS 3 Zrotation Xrotation Yrotation
        JOINT ElbowRight
        {
          OFFSET 5.267706 -22.637756 -6.679531
          CHANNELS 3 Zrotation Xrotation Yrotation
          JOINT WristRight
          {
            OFFSET -4.781493 -29.865540 -7.557726
            CHANNELS 3 Zrotation Xrotation Yrotation
            JOINT HandRight
            {
              OFFSET -1.288506 -4.061600 -0.885238
              CHANNELS 3 Zrotation Xrotation Yrotation
              JOINT HandTipRight
              {
                OFFSET -2.185438 -5.230209 -1.764822
                CHANNELS 3 Zrotation Xrotation Yrotation
                End Site
                {
                  OFFSET 0 0 0
                }
              }
              JOINT ThumbRight
              {
                OFFSET 3.286027 -0.988212 0.528937
                CHANNELS 3 Zrotation Xrotation Yrotation
                End Site
                {
                  OFFSET 0 0 0
                }
              }
            }
          }
        }
      }
    }
  }
  JOINT HipLeft
  {
    OFFSET -4.184635 -0.076249 0.878667
    CHANNELS 3 Zrotation Xrotation Yrotation
    JOINT KneeLeft
    {
      OFFSET 2.467466 -42.549209 -0.523288
      CHANNELS 3 Zrotation Xrotation Yrotation
      JOINT AnkleLeft
      {
        OFFSET 11.905966 -32.809873 2.295849
        CHANNELS 3 Zrotation Xrotation Yrotation
        JOINT FootLeft
        {
          OFFSET 0.154478 -8.190733 -5.906868
          CHANNELS 3 Zrotation Xrotation Yrotation
          End Site
          {
            OFFSET 0 0 0
          }
        }
      }
    }
  }
  JOINT HipRight
  {
    OFFSET 4.807620 2.442979 -8.713101
    CHANNELS 3 Zrotation Xrotation Yrotation
    JOINT KneeRight
    {
      OFFSET 9.425654 -40.166372 -8.420477
      CHANNELS 3 Zrotation Xrotation Yrotation
      JOINT AnkleRight
      {
        OFFSET 7.817786 -33.282662 3.539287
        CHANNELS 3 Zrotation Xrotation Yrotation
        JOINT FootRight
        {
          OFFSET -4.191649 -7.451708 -2.435733
          CHANNELS 3 Zrotation Xrotation Yrotation
          End Site
          {
            OFFSET 0 0 0
          }
        }
      }
    }
  }
}
MOTION
Frames: 8
Frame Time: 0.033333
-27.109931 83.989941 329.279118 -0.000000 0.000000 46.847697 0.000000 0.000000 -46.847697 -0.000000 0.000000 0.000000 -0.000000 0.000000 0.000000 0.000000 0.000000 0.000000 -0.000000 0.000000 0.000000 -0.000000 0.000000 0.000000 -0.000000 0.000000 0.000000 -0.000000 0.000000 0.000000 0.000000 0.000000 0.000000 0.000000 0.000000 0.000000 -0.000000 0.000000 0.000000 -0.000000 0.000000 0.000000 -0.000000 0.000000 0.000000 -0.000000 0.000000 0.000000 0.000000 0.000000 0.000000 0.000000 0.000000 0.000000 0.000000 0.000000 -46.847697 -0.000000 0.000000 0.000000 -0.000000 0.000000 0.000000 0.000000 0.000000 0.000000 0.000000 0.000000 -46.847697 -0.000000 0.000000 0.000000 -0.000000 0.000000 0.000000 0.000000 0.000000 0.000000
-27.111781 83.991714 329.199866 -0.020866 0.017972 46.792484 0.001186 -0.027513 -46.792481 -0.000000 0.000000 0.000000 -0.000000 0.000000 0.000000 0.000000 0.000000 0.000000 -0.000000 0.000000 0.000000 -0.000000 0.000000 0.000000 -0.000000 0.000000 0.000000 -4.392666 -13.189745 0.921996 0.000000 0.000000 0.000000 0.000000 0.000000 0.000000 -0.000000 0.000000 0.000000 -0.000000 0.000000 0.000000 1.742972 -6.097092 1.676425 2.845387 0.962393 -1.181883 0.000000 0.000000 0.000000 0.000000 0.000000 0.000000 0.001186 -0.027513 -46.792481 -0.000000 0.000000 0.000000 -0.000000 0.000000 0.000000 0.000000 0.000000 0.000000 0.001186 -0.027513 -46.792481 -0.000000 0.000000 0.000000 -0.000000 0.000000 0.000000 0.000000 0.000000 0.000000
-27.122220 83.993317 329.141156 -0.051317 0.016687 46.748375 0.023009 -0.048811 -46.748358 -0.000000 0.000000 0.000000 -0.000000 0.000000 0.000000 0.000000 0.000000 0.000000 -0.000000 0.000000 0.000000 -0.000092 1.374021 -0.115498 0.710702 -0.787561 0.233223 -7.461421 -21.055785 0.786759 0.000000 0.000000 0.000000 0.000000 0.000000 0.000000 -0.000000 0.000000 0.000000 -0.000000 0.000000 0.000000 2.999128 -10.202142 2.940072 4.842863 1.452461 -2.214881 0.000000 0.000000 0.000000 0.000000 0.000000 0.000000 0.023009 -0.048811 -46.748358 -0.000000 0.000000 0.000000 1.183591 0.733652 -0.843263 0.000000 0.000000 0.000000 0.023009 -0.048811 -46.748358 -0.000000 0.000000 0.000000 -0.000000 0.000000 0.000000 0.000000 0.000000 0.000000
-27.141247 83.994748 329.102988 -0.091360 -0.003872 46.715075 0.065457 -0.063851 -46.715042 -0.000000 0.000000 0.000000 -0.000000 0.000000 0.000000 0.000000 0.000000 0.000000 -0.000000 0.000000 0.000000 -0.014240 2.099481 -0.176014 1.350389 -1.634096 0.438135 -9.097410 -24.439842 0.556589 0.000000 0.000000 0.000000 0.000000 0.000000 0.000000 -0.000000 0.000000 0.000000 -0.000000 0.000000 0.000000 3.859336 -12.942620 3.855036 6.237586 1.712135 -3.031708 0.000000 0.000000 0.000000 0.000000 0.000000 0.000000 0.065457 -0.063851 -46.715042 -0.000000 0.000000 0.000000 1.748603 1.199483 -1.246989 0.000000 0.000000 0.000000 0.065457 -0.063851 -46.715042 -0.000000 0.000000 0.000000 -0.000000 0.000000 0.000000 0.000000 0.000000 0.000000
-27.168862 83.996009 329.085362 -0.140998 -0.043718 46.692370 0.128525 -0.072615 -46.692342 -0.000000 0.000000 0.000000 -0.000000 0.000000 0.000000 0.000000 0.000000 0.000000 -0.000000 0.000000 0.000000 -0.038224 2.832981 -0.236643 2.186208 -2.752580 0.716184 -9.960792 -25.080650 0.377267 0.000000 0.000000 0.000000 0.000000 0.000000 0.000000 -0.000000 0.000000 0.000000 -0.000000 0.000000 0.000000 4.401363 -14.725455 4.485453 7.192729 1.883065 -3.646199 0.000000 0.000000 0.000000 0.000000 0.000000 0.000000 0.128525 -0.072615 -46.692342 -0.000000 0.000000 0.000000 2.295964 1.730211 -1.639444 0.000000 0.000000 0.000000 0.128525 -0.072615 -46.692342 -0.000000 0.000000 0.000000 -0.000000 0.000000 0.000000 0.000000 0.000000 0.000000
-27.205066 83.997099 329.088278 -0.200233 -0.102860 46.680117 0.212208 -0.075108 -46.680158 -0.000000 0.000000 0.000000 -0.000000 0.000000 0.000000 0.000000 0.000000 0.000000 -0.000000 0.000000 0.000000 -0.071936 3.559701 -0.295963 3.229403 -4.125915 1.082365 -10.268443 -23.630675 0.257949 0.000000 0.000000 0.000000 0.000000 0.000000 0.000000 -0.000000 0.000000 0.000000 -0.000000 0.000000 0.000000 4.686320 -15.810199 4.885240 7.806961 2.054515 -4.092046 0.000000 0.000000 0.000000 0.000000 0.000000 0.000000 0.212208 -0.075108 -46.680158 -0.000000 0.000000 0.000000 2.825815 2.324778 -2.021061 0.000000 0.000000 0.000000 0.212208 -0.075108 -46.680158 -0.000000 0.000000 0.000000 -0.000000 0.000000 0.000000 0.000000 0.000000 0.000000
-27.253454 84.017362 329.120048 -0.271236 -0.179470 46.671030 0.316669 -0.074155 -46.671250 -0.000000 0.000000 0.000000 -0.000000 0.000000 0.000000 0.000000 0.000000 0.000000 -0.000000 0.000000 0.000000 -0.163780 4.742316 -0.389543 5.408995 -6.996770 1.925155 -9.881867 -17.344454 -0.012137 0.000000 0.000000 0.000000 0.000000 0.000000 0.000000 -0.000000 0.000000 0.000000 -0.000000 0.000000 0.000000 4.542954 -16.307658 5.089010 8.267906 3.579416 -5.126107 0.000000 0.000000 0.000000 0.000000 0.000000 0.000000 0.316669 -0.074155 -46.671250 -0.320390 -0.871316 -0.341206 3.802768 4.081408 -2.228992 0.000000 0.000000 0.000000 0.316669 -0.074155 -46.671250 -0.000000 0.000000 0.000000 -0.000000 0.000000 0.000000 0.000000 0.000000 0.000000
-27.327000 84.014487 329.187795 -0.376367 -0.295190 46.703149 0.472946 -0.071492 -46.703823 -0.000000 0.000000 0.000000 -0.000000 0.000000 0.000000 0.000000 0.000000 0.000000 0.801986 0.276186 -0.164538 -1.081648 5.448263 -0.304431 7.989080 -9.318787 2.955816 -10.149186 -11.428868 -0.565892 0.000000 0.000000 0.000000 0.000000 0.000000 0.000000 -0.000000 0.000000 0.000000 -0.000000 0.000000 0.000000 4.458987 -16.486999 5.164240 8.449632 3.753899 -5.305697 0.000000 0.000000 0.000000 0.000000 0.000000 0.000000 0.472946 -0.071492 -46.703823 -0.428952 -1.035265 -0.409872 4.389163 5.165792 -2.537818 0.000000 0.000000 0.000000 0.472946 -0.071492 -46.703823 -0.000000 0.000000 0.000000 -0.000000 0.000000 0.000000 0.000000 0.000000 0.000000
